# xmcd
#
# Track frame offsets:
#	150
#	9407
#	27449
#	42962
#	58922
#	75002
#	90735
#	108512
#	125551
#	137661
#	150273
#	168036
#	183175
#	199453
#	213269
#	230058
#	245708
#	260321
#
# Disc length: 3688
#
# Revision: 3
# Processed by: cddbd v1.5.1PL0 Copyright (c) Steve Scherf et al.
# Submitted via: FreeRIP 2.60 
# Normalized: r2:DSETVAR1,TDELIM( - )
#
DISCID=e90e6612
DTITLE=Various Artist - Promo Only Country Radio December 2000
DYEAR=2000
DGENRE=Country
TTITLE0=George Strait - Don't Make Me Come Over There and Love You
TTITLE1=Travis Tritt - It's A Great Day To Be Alive
TTITLE2=Daryle Singletary - I've Thought Of Everything
TTITLE3=Martina McBride - It's My Time
TTITLE4=Sawyer Brown - Looking For Love
TTITLE5=Pam Tillis - Please
TTITLE6=Trent Summar and The New Row Mob - It Never Rains Is Southern California
TTITLE7=Allison Moorer - Think It Over
TTITLE8=Billy Yates - What Do You Want From Me
TTITLE9=Trick Pony - Pour Me
TTITLE10=Chalee Tennison - Go Back
TTITLE11=Hank Williams III - I Don't Know
TTITLE12=Brad Paisley - We Danced (Live)
TTITLE13=Cledus T Judd - How Do You Milk A Cow
TTITLE14=Bill Engvall and Julie Reeves - Shoulda Shut Up
TTITLE15=Hampton The Hampster - Even Hamsters Fall In Love
TTITLE16=Doug Adkins - The Way That You Move
TTITLE17=Johnny Patton - I'd Have To Be Another Man
EXTD=
EXTT0=
EXTT1=
EXTT2=
EXTT3=
EXTT4=
EXTT5=
EXTT6=
EXTT7=
EXTT8=
EXTT9=
EXTT10=
EXTT11=
EXTT12=
EXTT13=
EXTT14=
EXTT15=
EXTT16=
EXTT17=
PLAYORDER=
